<svg width="32" height="27" viewBox="0 0 32 27" fill="none" xmlns="http://www.w3.org/2000/svg">
<g id="Logo Shapes 26">
<g id="Clip path group">
<mask id="mask0_148_8723" style="mask-type:luminance" maskUnits="userSpaceOnUse" x="0" y="-1" width="32" height="28">
<g id="clip0">
<path id="Vector" d="M32 -0.00759888H0V26.7143H32V-0.00759888Z" fill="white"/>
</g>
</mask>
<g mask="url(#mask0_148_8723)">
<g id="Group">
<path id="Vector_2" d="M13.465 25.2971L9.59912 19.1983C9.68048 19.1819 9.76184 19.169 9.84289 19.1463C10.0931 19.1012 10.3368 19.0428 10.5806 18.975C13.0106 18.3279 15.2118 16.9765 16.9257 15.0795C17.1777 14.9295 17.3919 14.72 17.5507 14.4679L18.2478 13.368C18.3104 13.274 18.3697 13.1801 18.4258 13.0863L20.5356 9.76053C20.7577 9.41498 20.8645 9.00373 20.8396 8.58954C20.8148 8.17533 20.6598 7.78092 20.3982 7.46641C20.3416 7.39588 20.2798 7.32989 20.2136 7.26895C20.0568 7.12074 19.8744 7.00444 19.676 6.92609C19.9356 6.95763 20.1919 6.99737 20.4449 7.04595C22.7433 7.48256 24.8885 8.54321 26.661 10.1195C26.9828 10.4034 27.2924 10.7052 27.5862 11.0222L19.6876 23.4755L19.6846 23.4787C19.6846 23.4818 19.6815 23.4853 19.6782 23.4885V23.4916C19.6744 23.4966 19.6713 23.5021 19.6691 23.508L18.5343 25.2971C18.2585 25.7323 17.8824 26.0897 17.4399 26.337C16.9975 26.5843 16.5025 26.7138 15.9996 26.7138C15.4968 26.7138 15.0018 26.5843 14.5594 26.337C14.1169 26.0897 13.7408 25.7323 13.465 25.2971Z" fill="url(#paint0_linear_148_8723)"/>
<path id="Vector_3" d="M9.59912 19.1983L6.36426 14.096L5.02016 11.9735L4.99517 11.9379C4.99343 11.9361 4.99237 11.9337 4.99212 11.9312C4.98877 11.9281 4.98572 11.9249 4.98572 11.9218L4.98557 11.9205L4.98493 11.9193L4.9839 11.9186L4.98268 11.9183C4.98268 11.9152 4.97963 11.912 4.97963 11.9085L4.97628 11.9054L1.96903 7.16864C1.9664 7.16589 1.96423 7.16267 1.96263 7.15917C1.95958 7.1557 1.95959 7.1557 1.95959 7.15255L0.503045 4.85531C0.202442 4.38192 0.0312016 3.83317 0.00748743 3.26721C-0.0162269 2.70125 0.108468 2.1392 0.368346 1.64066C0.628225 1.14212 1.0136 0.725673 1.4836 0.435485C1.9536 0.145301 2.49072 -0.0078058 3.03797 -0.00759867H9.17648C9.17038 0.0239439 9.16733 0.060531 9.16398 0.0927044C9.08244 0.704893 9.0417 1.32218 9.0421 1.94016C9.0421 2.18303 9.0485 2.42244 9.06099 2.66185C9.06099 2.66815 9.06404 2.67131 9.06404 2.67793C9.2067 5.48748 10.1849 8.1827 11.8647 10.3945C11.8669 10.3995 11.8701 10.4039 11.8741 10.4074L14.4496 14.4679C14.6534 14.7912 14.9471 15.043 15.2918 15.1903C15.6366 15.3376 16.0164 15.3734 16.3812 15.293C16.5721 15.2516 16.7556 15.1795 16.9251 15.0795C15.2112 16.9765 13.01 18.3278 10.58 18.975C10.3362 19.0428 10.0925 19.1012 9.84228 19.1463C9.76122 19.169 9.67987 19.1819 9.59912 19.1983Z" fill="url(#paint1_linear_148_8723)"/>
<path id="Vector_4" d="M11.4645 9.76048L11.8646 10.3945C10.1848 8.1827 9.2066 5.48748 9.06393 2.67793C9.06393 2.67131 9.06089 2.66815 9.06089 2.66185C9.04839 2.42244 9.04199 2.18303 9.04199 1.94016C9.04163 1.32218 9.08234 0.704893 9.16388 0.0927044C9.16723 0.0611619 9.17028 0.0248902 9.17637 -0.00759867H28.9615C29.5088 -0.0078058 30.0459 0.145301 30.516 0.435485C30.9858 0.725673 31.3713 1.14212 31.6312 1.64066C31.8911 2.1392 32.0158 2.70125 31.992 3.26721C31.9682 3.83317 31.797 4.38192 31.4965 4.85531L28.6178 9.40184C28.6124 9.41109 28.606 9.41973 28.599 9.42771H28.5959C28.5935 9.43351 28.5903 9.43894 28.5864 9.4438V9.44727L28.5834 9.45042C28.5818 9.45398 28.5796 9.45726 28.577 9.4602L27.5864 11.0228C27.2926 10.7058 26.983 10.4049 26.6613 10.1201C24.8887 8.54383 22.7435 7.48318 20.4451 7.04657C20.1921 6.99799 19.9359 6.95919 19.6763 6.9267C19.4573 6.83321 19.2224 6.7859 18.9855 6.7876H13.0149C12.7616 6.7876 12.511 6.84126 12.2784 6.94522C12.0459 7.04922 11.8364 7.20134 11.6628 7.39227C11.4891 7.5832 11.3551 7.80885 11.2688 8.05539C11.1826 8.30196 11.146 8.56414 11.1613 8.82588C11.1618 8.84871 11.1639 8.87149 11.1674 8.89401C11.1939 9.20423 11.2961 9.5024 11.4645 9.76048Z" fill="url(#paint2_linear_148_8723)"/>
<g id="Group_2" style="mix-blend-mode:multiply" opacity="0.2">
<path id="Vector_5" d="M10.5457 18.988C10.5581 18.9849 10.5676 18.9782 10.5801 18.975C10.8644 18.8716 11.149 18.7647 11.4272 18.6514C11.7179 18.5319 12.0022 18.4023 12.2834 18.2663C12.5617 18.1241 12.8399 17.9824 13.112 17.8247C13.3841 17.667 13.6495 17.5077 13.9118 17.3396C14.1715 17.1648 14.4247 16.9835 14.6736 16.7993C14.9226 16.6151 15.1676 16.4141 15.405 16.2135C15.6423 16.0129 15.8678 15.7962 16.0957 15.5795C16.1926 15.4849 16.2865 15.3884 16.3803 15.2915C16.5713 15.2501 16.7548 15.178 16.9243 15.078C17.1763 14.928 17.3904 14.7184 17.5492 14.4664L18.2464 13.3665C18.309 13.2725 18.3683 13.1786 18.4244 13.0848L20.5342 9.75899C20.7563 9.41344 20.863 9.00222 20.8382 8.58801C20.8134 8.17382 20.6584 7.77938 20.3968 7.46487C20.6597 7.73892 20.8343 8.09036 20.8968 8.47108C20.9663 8.86442 20.9161 9.27034 20.753 9.63282C20.6717 9.81072 20.5702 9.9725 20.4788 10.1308L20.2006 10.6132L19.6286 11.5708C19.2473 12.2079 18.8608 12.8421 18.4692 13.4731L17.8783 14.4178C17.7788 14.5922 17.6627 14.756 17.5316 14.9064C17.4018 15.0503 17.2522 15.1735 17.0876 15.272C16.8719 15.5019 16.6531 15.7284 16.4248 15.9451C16.1875 16.1684 15.9437 16.3785 15.6905 16.5822C15.4373 16.786 15.181 16.974 14.9183 17.1582C14.6496 17.3396 14.3778 17.5077 14.0996 17.6695C13.8213 17.8313 13.5401 17.9768 13.2494 18.1111C12.9587 18.2455 12.668 18.3701 12.3709 18.4801C12.0738 18.5902 11.7709 18.6839 11.4677 18.7713L11.0082 18.8908L10.5457 18.988Z" fill="black"/>
</g>
<g id="Group_3" style="mix-blend-mode:multiply" opacity="0.2">
<path id="Vector_6" d="M26.6863 10.1389C26.6768 10.1323 26.6704 10.126 26.6613 10.1193C26.1469 9.73143 25.6103 9.37604 25.0545 9.0551C24.7803 8.88666 24.492 8.73778 24.2044 8.59237C23.9167 8.44696 23.623 8.31069 23.3292 8.18452C23.0324 8.06498 22.7353 7.94196 22.4321 7.83756C22.1289 7.73315 21.8257 7.64325 21.5195 7.55588C21.2133 7.46851 20.9006 7.39407 20.588 7.33508C20.513 7.31868 20.4256 7.29944 20.3601 7.28966L20.2129 7.26695C20.0561 7.11873 19.8738 7.00244 19.6754 6.92408C19.4563 6.83059 19.2215 6.78328 18.9846 6.78498H13.0149C13.571 6.7301 14.1274 6.70423 14.6869 6.66512C15.2433 6.6361 15.7997 6.60708 16.3561 6.591C16.9125 6.57491 17.4686 6.55945 18.025 6.54873L18.8596 6.5358C19.011 6.52939 19.1627 6.53699 19.3128 6.55851C19.4593 6.581 19.6029 6.62002 19.7412 6.6749L20.1943 6.74303L20.435 6.78183C20.5286 6.79476 20.6005 6.81337 20.6849 6.83356C21.007 6.89664 21.3288 6.98244 21.6478 7.07297C21.9668 7.16349 22.2758 7.27988 22.5854 7.39975C22.895 7.51961 23.1979 7.65209 23.495 7.79781C23.7887 7.94985 24.0825 8.10504 24.3671 8.27663C24.6517 8.44822 24.9265 8.63243 25.1922 8.82673C25.4579 9.02103 25.7173 9.23426 25.9671 9.45095C26.2179 9.66753 26.458 9.89712 26.6863 10.1389Z" fill="black"/>
</g>
<g id="Group_4" style="mix-blend-mode:multiply" opacity="0.2">
<path id="Vector_7" d="M14.4497 14.4681C13.9588 13.8341 13.4901 13.1837 13.0276 12.5301C12.5775 11.8863 12.1397 11.2369 11.7085 10.5792L11.6804 10.5404C11.2477 9.98695 10.8604 9.39704 10.5225 8.77685C10.3601 8.46648 10.2007 8.14916 10.06 7.82585C9.91919 7.50254 9.79426 7.16566 9.67877 6.83257C9.62544 6.66414 9.56298 6.49917 9.5194 6.32789C9.47583 6.15662 9.42555 5.98503 9.38502 5.81375C9.29909 5.4707 9.23026 5.12326 9.17873 4.77285C9.15679 4.5981 9.12541 4.42336 9.11291 4.24861C9.09432 4.07071 9.07848 3.89597 9.06934 3.71807C9.04898 3.36687 9.04581 3.01483 9.05989 2.6633C9.05989 2.66961 9.06294 2.67276 9.06294 2.67939C9.16624 3.36858 9.29422 4.048 9.45907 4.71134C9.55048 5.04443 9.6419 5.37783 9.74672 5.70461C9.84667 6.03455 9.96855 6.35502 10.0874 6.67518C10.3397 7.31066 10.6288 7.92981 10.9531 8.52925C11.022 8.65195 11.0939 8.77181 11.1664 8.89482C11.1928 9.20526 11.295 9.50366 11.4635 9.76193L11.8636 10.3959C11.8658 10.4009 11.869 10.4053 11.873 10.4089L14.4497 14.4681Z" fill="black"/>
</g>
<g id="Group_5" style="mix-blend-mode:screen" opacity="0.4">
<path id="Vector_8" d="M1.95959 7.15255L0.503045 4.85531C0.202442 4.38192 0.0312016 3.83317 0.00748743 3.26721C-0.0162269 2.70125 0.108468 2.1392 0.368346 1.64066C0.628225 1.14212 1.0136 0.725673 1.4836 0.435485C1.9536 0.145301 2.49072 -0.0078058 3.03797 -0.00759867H10.757C10.757 -0.00759867 10.4944 0.0151124 10.0318 0.0441315C9.79109 0.0539096 9.50039 0.0734635 9.16276 0.0927044C8.84708 0.109106 8.49726 0.128354 8.11271 0.141287C7.32045 0.172829 6.39686 0.202795 5.40288 0.218882C4.90894 0.225506 4.39732 0.24159 3.87443 0.24159C3.61511 0.244744 3.35245 0.244743 3.08978 0.248212C2.84573 0.251856 2.60274 0.282196 2.36486 0.338735C1.89304 0.456287 1.45956 0.700666 1.10821 1.04718C0.76578 1.38494 0.507348 1.80342 0.35495 2.26693C0.214311 2.7042 0.170471 3.1686 0.226669 3.62578C0.248609 3.73271 0.267499 3.83932 0.289439 3.94625C0.311379 4.05318 0.35495 4.14024 0.382984 4.24055C0.398525 4.28912 0.411326 4.3377 0.429913 4.38312L0.501826 4.52853C0.548752 4.61937 0.593241 4.7099 0.636206 4.79727C1.04879 5.49909 1.37392 6.09777 1.60825 6.51192C1.80966 6.86457 1.9282 7.0942 1.95959 7.15255Z" fill="white"/>
</g>
<g id="Group_6" style="mix-blend-mode:multiply" opacity="0.35">
<path id="Vector_9" d="M4.979 11.9084C4.979 11.9118 4.98205 11.9148 4.9851 11.9179H4.98205C4.98205 11.9148 4.979 11.9118 4.979 11.9084Z" fill="black"/>
</g>
<g id="Group_7" style="mix-blend-mode:multiply" opacity="0.35">
<path id="Vector_10" d="M13.465 25.2969L9.59906 19.1982L6.3642 14.0959L4.99511 11.9377C4.99341 11.9359 4.99234 11.9336 4.99207 11.9311C5.05148 12.0153 5.25443 12.3033 5.57103 12.7531C5.94308 13.2997 6.49005 14.07 7.11532 15.0147C7.7406 15.9594 8.4841 17.0498 9.25321 18.2371C9.44701 18.5348 9.64385 18.8389 9.84374 19.1461C10.0436 19.4533 10.2399 19.7577 10.4407 20.0684C10.8408 20.6961 11.2473 21.3301 11.6535 21.9676C12.0596 22.6051 12.4567 23.2457 12.8537 23.8766C13.0506 24.1904 13.2444 24.5042 13.4382 24.8149C13.5351 24.9635 13.6259 25.1351 13.7258 25.2644L13.8666 25.4685C13.9196 25.5297 13.979 25.588 14.0321 25.6496C14.472 26.1081 15.0431 26.4076 15.6605 26.5037C16.2218 26.581 16.7929 26.4924 17.3077 26.2482C17.4266 26.1851 17.536 26.1154 17.6454 26.0508C17.7484 25.9732 17.8486 25.8987 17.9455 25.8243C18.033 25.7401 18.1174 25.6562 18.1984 25.5751C18.2767 25.4846 18.3487 25.3859 18.4172 25.3001C18.6799 24.9345 18.9081 24.5948 19.0955 24.3263C19.4237 23.8605 19.6269 23.5627 19.68 23.4914C19.6762 23.4964 19.6731 23.5019 19.6708 23.5078L18.5361 25.2969C18.2603 25.7325 17.8842 26.0903 17.4415 26.3378C16.9989 26.5854 16.5037 26.7151 16.0005 26.7151C15.4974 26.7151 15.0022 26.5854 14.5595 26.3378C14.1169 26.0903 13.7407 25.7325 13.465 25.2969Z" fill="black"/>
</g>
<g id="Group_8" style="mix-blend-mode:screen" opacity="0.4">
<path id="Vector_11" d="M28.5866 9.44322C28.5905 9.43836 28.5936 9.43297 28.596 9.42713C28.6524 9.32683 28.8273 9.01964 29.096 8.55028C29.4337 7.97779 29.8993 7.14948 30.4901 6.17545C30.7778 5.69032 31.1185 5.15628 31.4247 4.60302C31.7282 4.03463 31.8412 3.37829 31.7465 2.73635C31.6956 2.40252 31.5911 2.07987 31.4372 1.78187C31.276 1.47924 31.067 1.20689 30.8183 0.976285C30.7595 0.915149 30.6946 0.860884 30.6245 0.814472C30.5526 0.762742 30.4871 0.710688 30.4152 0.662428C30.2693 0.574418 30.1164 0.499703 29.9581 0.439116C29.8801 0.413251 29.7987 0.374454 29.7207 0.354898L29.483 0.303166C29.397 0.281883 29.3088 0.271293 29.2204 0.271622L28.9461 0.252062L26.7522 0.242282C26.0239 0.235974 25.3081 0.229353 24.6112 0.219574C23.2233 0.203488 21.9297 0.161542 20.8166 0.138831C19.7035 0.116121 18.782 0.0643865 18.1318 0.0416759C17.4849 0.012657 17.1158 -0.00689676 17.1158 -0.00689676H28.962C29.5092 -0.00710389 30.0463 0.146003 30.5163 0.436189C30.9862 0.726374 31.3717 1.14281 31.6316 1.64136C31.8915 2.1399 32.0162 2.70195 31.9924 3.26792C31.9686 3.83386 31.7974 4.38264 31.4969 4.85599L28.6179 9.4019C28.6125 9.41114 28.6061 9.41982 28.599 9.42776C28.596 9.43376 28.5917 9.43902 28.5866 9.44322Z" fill="white"/>
</g>
</g>
</g>
</g>
</g>
<defs>
<linearGradient id="paint0_linear_148_8723" x1="-200.669" y1="-35.2415" x2="-185.679" y2="-24.3505" gradientUnits="userSpaceOnUse">
<stop stop-color="#FCC400"/>
<stop offset="0.162" stop-color="#FBC000"/>
<stop offset="0.307" stop-color="#FBB500"/>
<stop offset="0.446" stop-color="#FBA300"/>
<stop offset="0.581" stop-color="#FA8900"/>
<stop offset="0.712" stop-color="#FA6800"/>
<stop offset="0.842" stop-color="#F93F00"/>
<stop offset="0.967" stop-color="#F81000"/>
<stop offset="1" stop-color="#F80300"/>
</linearGradient>
<linearGradient id="paint1_linear_148_8723" x1="-210.029" y1="-13.1252" x2="-192.019" y2="-22.1624" gradientUnits="userSpaceOnUse">
<stop stop-color="#C33764"/>
<stop offset="1" stop-color="#1D2671"/>
</linearGradient>
<linearGradient id="paint2_linear_148_8723" x1="-204.443" y1="-41.7027" x2="-204.443" y2="-19.4542" gradientUnits="userSpaceOnUse">
<stop stop-color="#FC7300"/>
<stop offset="1" stop-color="#F8007A"/>
</linearGradient>
</defs>
</svg>
