<svg width="28" height="29" viewBox="0 0 28 29" fill="none" xmlns="http://www.w3.org/2000/svg">
<g id="Logo Shapes 21">
<g id="Clip path group">
<mask id="mask0_148_8559" style="mask-type:luminance" maskUnits="userSpaceOnUse" x="0" y="-1" width="28" height="30">
<g id="clip0">
<path id="Vector" d="M28 -0.00759888H0V28.9765H28V-0.00759888Z" fill="white"/>
</g>
</mask>
<g mask="url(#mask0_148_8559)">
<g id="Group">
<path id="Vector_2" d="M28 7.9664V14.3058C27.9512 14.4844 27.8958 14.6631 27.8405 14.8383C27.8382 14.8412 27.8371 14.8448 27.8372 14.8484C27.8372 14.8518 27.8372 14.8518 27.834 14.8552C27.1479 16.9666 25.9919 18.8815 24.4593 20.4452C22.9266 22.0089 21.0602 23.1777 19.0107 23.8571C18.6623 23.9717 18.3107 24.0728 17.9526 24.157C17.9484 24.1588 17.944 24.1599 17.9396 24.1604C16.9282 24.4005 15.8939 24.5214 14.8563 24.521H14.7163C16.3867 24.3927 17.9966 23.8198 19.3902 22.8579C20.7838 21.896 21.9136 20.5777 22.6703 19.0309V19.0275C23.3083 17.7267 23.665 16.2977 23.7156 14.8397C23.7662 13.3818 23.5095 11.9299 22.9633 10.5851C22.8916 10.2379 22.807 9.89417 22.7093 9.55715C22.6702 9.4156 22.6247 9.27068 22.5791 9.12913C22.553 9.0415 22.5237 8.95388 22.4944 8.86962C22.4586 8.76851 22.4261 8.66404 22.3837 8.56293C22.3577 8.49215 22.3316 8.41801 22.3023 8.34386C22.2502 8.20905 22.1949 8.07087 22.1396 7.93269C22.0744 7.78103 22.0126 7.62937 21.941 7.48108C21.9019 7.4002 21.8661 7.32268 21.8237 7.24179C21.7912 7.16428 21.7489 7.08339 21.7098 7.00588C21.6707 6.92836 21.6284 6.84411 21.5828 6.76322C21.5242 6.64189 21.4558 6.5273 21.3907 6.41271C21.3028 6.25431 21.2084 6.09928 21.1172 5.94425C21.1075 5.94088 21.1075 5.93751 21.1042 5.9274C21.0065 5.769 20.9056 5.6106 20.7982 5.46231C20.6972 5.30727 20.5898 5.15224 20.4758 5.00395C20.3684 4.85566 20.2577 4.704 20.1372 4.55908C20.1272 4.55126 20.1193 4.54078 20.1144 4.52875C20.007 4.39394 19.8996 4.2625 19.7823 4.13443C19.6619 3.99288 19.5414 3.85807 19.4112 3.72326C19.2875 3.58508 19.1605 3.45364 19.0237 3.3222C18.9033 3.20087 18.7763 3.07955 18.6428 2.9616L18.6233 2.94137C18.5549 2.88071 18.4865 2.81667 18.4182 2.75938C18.3465 2.69534 18.2749 2.63468 18.2033 2.57738C18.0665 2.45942 17.92 2.34146 17.7735 2.23025C17.6986 2.16958 17.6237 2.10892 17.5456 2.055C17.4675 2.00107 17.3893 1.94378 17.3144 1.88648C17.2819 1.86289 17.2493 1.84267 17.2168 1.81908C17.0768 1.72134 16.9303 1.62361 16.7837 1.52924C16.6144 1.41802 16.4419 1.31354 16.2661 1.21244C16.1977 1.17199 16.1326 1.13155 16.0609 1.09785C15.9926 1.05741 15.9275 1.0237 15.8558 0.986626C15.7906 0.947784 15.7232 0.912902 15.654 0.882149C15.5009 0.801263 15.3414 0.723747 15.1819 0.649602C15.1363 0.62601 15.0875 0.602425 15.0386 0.582204C14.9247 0.52828 14.8075 0.484467 14.6903 0.433913C14.6686 0.422019 14.6457 0.412957 14.6219 0.406944C14.5405 0.369872 14.4591 0.336173 14.3744 0.305841C14.2963 0.275509 14.2182 0.245173 14.1335 0.218211L14.127 0.214838L14.1237 0.211475C14.0456 0.181142 13.9642 0.154181 13.8796 0.127219C13.7428 0.076665 13.6028 0.0362241 13.4661 -0.00758911H20.2935C21.3057 -0.00923021 22.3083 0.195878 23.2438 0.595985C24.1793 0.996093 25.0293 1.58333 25.7452 2.32407C26.4611 3.06481 27.0287 3.94448 27.4157 4.91269C27.8026 5.88089 28.0012 6.91862 28 7.9664Z" fill="url(#paint0_linear_148_8559)"/>
<path id="Vector_3" d="M28.0003 14.3068V21.0001C28.002 22.0481 27.8038 23.0863 27.4172 24.055C27.0305 25.0236 26.4629 25.9037 25.747 26.6448C25.031 27.386 24.1807 27.9735 23.245 28.3738C22.3092 28.7741 21.3063 28.9792 20.2938 28.9774H12.0761C11.9003 28.8831 11.7245 28.7853 11.5519 28.6808H11.5487C11.5454 28.6775 11.5454 28.6775 11.5422 28.6775C8.50071 26.8618 6.24463 23.9115 5.23565 20.4305C5.0449 19.773 4.90232 19.1015 4.80914 18.4218V18.4151C4.76356 18.0949 4.72775 17.768 4.70496 17.4411C5.31627 19.4991 6.54895 21.3 8.22198 22.5794C9.89505 23.8587 11.9203 24.549 14.0003 24.5489C14.2445 24.5489 14.4822 24.5422 14.7166 24.522H14.8566C15.8942 24.5224 16.9285 24.4014 17.9398 24.1614C17.9443 24.1608 17.9487 24.1597 17.9529 24.158C18.311 24.0737 18.6626 23.9726 19.011 23.858C21.0605 23.1786 22.9269 22.0098 24.4595 20.4461C25.9922 18.8824 27.1482 16.9675 27.8343 14.8561C27.8375 14.8527 27.8375 14.8527 27.8375 14.8494C27.8373 14.8457 27.8385 14.8421 27.8408 14.8393C27.8961 14.664 27.9508 14.4854 28.0003 14.3068Z" fill="url(#paint1_linear_148_8559)"/>
<path id="Vector_4" d="M12.0758 28.9758H7.70651C5.66264 28.9757 3.70251 28.1352 2.25728 26.6391C0.812049 25.1431 8.63429e-05 23.1141 0 20.9984V14.1298C0.130233 13.7827 0.273491 13.4389 0.429771 13.1053L0.436279 13.0986C0.52093 12.9166 0.608837 12.7379 0.703256 12.5627C0.758605 12.4548 0.817216 12.347 0.872565 12.2391C0.989774 12.0369 1.10373 11.8381 1.22745 11.6426C1.34466 11.4539 1.46186 11.2685 1.58884 11.0831C1.71581 10.8978 1.8493 10.7192 1.98279 10.5405C2.11628 10.3619 2.25629 10.19 2.39629 10.0215C2.53629 9.85301 2.6828 9.68449 2.83582 9.51935C2.98884 9.35421 3.13861 9.19581 3.29814 9.04078C3.6107 8.73072 3.93953 8.43413 4.28139 8.1544C4.61674 7.87804 4.96512 7.62191 5.32326 7.37925C5.33263 7.37291 5.34243 7.36728 5.35256 7.3624C5.53163 7.24107 5.71721 7.12648 5.89953 7.01189C5.91028 7.00832 5.92024 7.00259 5.92884 6.99504L6.19256 6.84338C6.42046 6.71531 6.64837 6.59398 6.88279 6.47939C6.99349 6.4221 7.10744 6.37155 7.2214 6.31762C7.36139 6.25359 7.50465 6.18955 7.64465 6.13226C7.77814 6.07833 7.91488 6.02441 8.05163 5.97049L8.05814 5.96712C8.14279 5.93678 8.2307 5.90308 8.31535 5.87275C8.43581 5.83231 8.56279 5.78849 8.68651 5.75142C8.77299 5.71873 8.86102 5.69062 8.95023 5.66716C9.16512 5.60313 9.38326 5.54247 9.60139 5.49191C9.58684 5.50506 9.57164 5.51746 9.55581 5.52899C7.52692 6.61093 5.92965 8.39629 5.04296 10.5732C4.15627 12.7502 4.03656 15.1804 4.70465 17.4394C4.72744 17.7663 4.76326 18.0933 4.80884 18.4134V18.4202C4.90202 19.0999 5.04459 19.7713 5.23535 20.4288C6.24446 23.9093 8.50025 26.859 11.5412 28.6745C11.5445 28.6745 11.5445 28.6745 11.5477 28.6778H11.551C11.7242 28.7837 11.8993 28.8814 12.0758 28.9758Z" fill="url(#paint2_linear_148_8559)"/>
<path id="Vector_5" d="M22.9535 10.548C22.8851 10.2143 22.8037 9.88069 22.7093 9.55715C22.68 9.4493 22.6442 9.33471 22.6084 9.22687C22.5954 9.17968 22.5856 9.14598 22.5791 9.12913C22.553 9.0415 22.5237 8.95388 22.4944 8.86962C22.4586 8.76851 22.426 8.66404 22.3837 8.56293C22.3577 8.49215 22.3316 8.41801 22.3023 8.34386C22.2502 8.20905 22.1949 8.07087 22.1395 7.93269C22.0744 7.78103 22.0093 7.62937 21.9409 7.48108C21.9019 7.4002 21.866 7.32268 21.8237 7.24179C21.7879 7.16428 21.7488 7.08339 21.7098 7.00588C21.6707 6.92836 21.6284 6.84411 21.5828 6.76322C21.5242 6.64189 21.4558 6.5273 21.3907 6.41271C21.3028 6.25431 21.2084 6.09928 21.1172 5.94425C21.1074 5.94088 21.1074 5.93751 21.1042 5.9274C21.0033 5.769 20.9023 5.61397 20.7981 5.46231C20.694 5.31064 20.5865 5.15561 20.4758 5.00395C20.3651 4.85229 20.2544 4.70737 20.1372 4.55908C20.1271 4.55123 20.1193 4.54078 20.1144 4.52875C20.0037 4.39394 19.8963 4.2625 19.7823 4.13443C19.6586 3.99288 19.5381 3.85807 19.4112 3.72326C19.2842 3.58845 19.1605 3.45364 19.0237 3.32219C18.9033 3.20086 18.7763 3.07954 18.6428 2.96159L18.6233 2.94136C18.5549 2.8807 18.4865 2.81666 18.4181 2.75937L18.2033 2.57737C18.0665 2.45941 17.92 2.34145 17.7735 2.23024C17.6986 2.17294 17.6205 2.11565 17.5456 2.05499C17.4707 1.99433 17.3893 1.94377 17.3144 1.88648C17.2819 1.86289 17.2493 1.84266 17.2167 1.81907C17.0767 1.72133 16.9302 1.6236 16.7837 1.52923C16.6144 1.41801 16.4419 1.31354 16.266 1.21243C16.1977 1.17199 16.1326 1.13154 16.0609 1.09784C15.9926 1.0574 15.9274 1.02369 15.8558 0.986616C15.7905 0.947774 15.7231 0.912892 15.654 0.882139C15.5009 0.801253 15.3447 0.723737 15.1819 0.649592C15.1363 0.626 15.0874 0.602415 15.0386 0.582194C14.9214 0.52827 14.8074 0.477716 14.6902 0.433903C14.6686 0.422009 14.6457 0.412947 14.6219 0.406934C14.5405 0.369862 14.4591 0.336163 14.3744 0.305831C14.2963 0.275499 14.2181 0.245164 14.1335 0.218202L14.127 0.214828L14.1237 0.211465C14.0456 0.181133 13.9642 0.154171 13.8795 0.127209C13.7428 0.0766552 13.6028 0.0362143 13.466 -0.00759876H7.70326C6.69161 -0.00777585 5.68983 0.198352 4.75515 0.599021C3.82047 0.999689 2.9712 1.58705 2.25585 2.32753C1.5405 3.06802 0.973098 3.94715 0.586034 4.91467C0.198968 5.8822 -0.000170965 6.91916 1.10131e-07 7.9664V14.1306C0.133488 13.7767 0.280002 13.4296 0.439538 13.0925C0.62512 12.6948 0.830233 12.3106 1.04837 11.9365C1.10372 11.8388 1.16559 11.7411 1.22745 11.6433C1.34466 11.4546 1.46186 11.2692 1.58884 11.0839C1.71582 10.8985 1.84279 10.7199 1.98279 10.5413C2.11302 10.366 2.24977 10.1908 2.39629 10.0222C2.5428 9.85373 2.6828 9.68185 2.83582 9.52008C2.98233 9.35494 3.13861 9.19316 3.29814 9.0415C3.61132 8.72912 3.93947 8.43331 4.2814 8.15513C4.6145 7.88052 4.96114 7.62405 5.32 7.38671C5.33006 7.37772 5.34097 7.36983 5.35256 7.36312C5.52512 7.24516 5.69767 7.13395 5.87674 7.0261C6.44557 6.68678 7.03627 6.38838 7.64465 6.13298C7.77814 6.07906 7.91488 6.02514 8.05163 5.97121L8.05814 5.96784C8.14279 5.93751 8.2307 5.90381 8.31535 5.87348C8.32987 5.87054 8.34407 5.86603 8.35767 5.85999C8.46837 5.81955 8.57907 5.78585 8.68651 5.75215C8.77299 5.71946 8.86102 5.69135 8.95023 5.66789C9.16512 5.60386 9.38326 5.54319 9.6014 5.49264C9.58512 5.50275 9.57209 5.5196 9.55581 5.52971C9.59163 5.50949 9.62419 5.49601 9.65674 5.47579H9.66651C11.0108 4.77602 12.4953 4.41349 14 4.41753C16.4594 4.41463 18.8279 5.3797 20.6256 7.11709C20.6353 7.12721 20.6451 7.13395 20.6484 7.14406C21.2048 7.68303 21.6977 8.28825 22.1167 8.94714L22.12 8.95051C22.1916 9.06509 22.2633 9.17968 22.3316 9.29764C22.5718 9.7105 22.7829 10.1408 22.9633 10.5851C22.9592 10.573 22.9559 10.5606 22.9535 10.548Z" fill="url(#paint3_linear_148_8559)"/>
<g id="Group_2" style="mix-blend-mode:multiply" opacity="0.08">
<path id="Vector_6" d="M28 8.27365V14.3064C27.1763 17.2546 25.4487 19.8456 23.0777 21.6882C20.7067 23.5309 17.8212 24.5254 14.8563 24.5216H14.7163C16.3867 24.3932 17.9967 23.8203 19.3902 22.8584C20.7838 21.8965 21.9136 20.5783 22.6703 19.0315C22.6735 19.0281 22.6703 19.0281 22.6703 19.0281C24.6889 16.6319 26.6261 13.1976 28 8.27365Z" fill="black"/>
</g>
<g id="Group_3" style="mix-blend-mode:multiply" opacity="0.08">
<path id="Vector_7" d="M15.8691 28.976H12.0761C9.99725 27.8657 8.22807 26.2223 6.9376 24.2026C5.64709 22.1829 4.87843 19.8545 4.70496 17.4397C5.20254 19.1171 6.11632 20.6301 7.35519 21.8277C9.52031 24.9599 12.4616 27.4294 15.8691 28.976Z" fill="black"/>
</g>
<g id="Group_4" style="mix-blend-mode:multiply" opacity="0.08">
<path id="Vector_8" d="M9.6014 5.49191C9.58684 5.50506 9.57164 5.51746 9.55581 5.52899C8.52734 6.07928 7.60135 6.81416 6.82093 7.69942C4.78279 9.52946 2.24651 12.4649 0 17.008V14.1298C0.200534 13.5919 0.435475 13.0683 0.703256 12.5627C0.758605 12.4548 0.817216 12.347 0.872565 12.2391C0.989774 12.0369 1.10373 11.8381 1.22745 11.6426C1.34466 11.4539 1.46186 11.2685 1.58884 11.0831C1.71581 10.8978 1.8493 10.7192 1.98279 10.5405C2.11628 10.3619 2.25629 10.19 2.39629 10.0215C2.53629 9.85301 2.6828 9.68449 2.83582 9.51935C2.98884 9.35421 3.13861 9.19581 3.29814 9.04078C3.6107 8.73072 3.93953 8.43413 4.2814 8.1544C4.61674 7.87804 4.96512 7.62191 5.32326 7.37925C5.33263 7.37291 5.34243 7.36728 5.35256 7.3624C5.53163 7.24107 5.71721 7.12648 5.89954 7.01189C5.91028 7.00832 5.92024 7.00259 5.92884 6.99504L6.19256 6.84338C6.42047 6.71531 6.64837 6.59398 6.88279 6.47939C6.99349 6.4221 7.10744 6.37155 7.2214 6.31762C7.3614 6.25359 7.50465 6.18955 7.64465 6.13226C7.86605 6.04126 8.0907 5.95364 8.31535 5.87275C8.43581 5.83231 8.56279 5.78849 8.68651 5.75142C8.77299 5.71873 8.86102 5.69062 8.95023 5.66716C9.16446 5.60313 9.38326 5.54247 9.6014 5.49191Z" fill="black"/>
</g>
<g id="Group_5" style="mix-blend-mode:multiply" opacity="0.08">
<path id="Vector_9" d="M22.9637 10.5851C22.7833 10.1408 22.5722 9.7105 22.332 9.29764C22.2761 9.17304 22.205 9.05637 22.1204 8.95051L22.1171 8.94714C21.6981 8.28825 21.2052 7.68303 20.6488 7.14406C20.6455 7.13395 20.6357 7.12721 20.626 7.11709C18.4934 4.79163 14.5897 1.82918 7.70691 -0.00759888H13.4664C13.6032 0.0362143 13.7432 0.0766552 13.8799 0.127209C13.9646 0.154171 14.046 0.181133 14.1241 0.211465C14.1274 0.211465 14.1306 0.218202 14.1339 0.218202C14.2185 0.245164 14.2967 0.275499 14.3748 0.305831C14.4595 0.336163 14.5409 0.369862 14.6223 0.406934C14.6461 0.412947 14.669 0.422009 14.6906 0.433903C14.8078 0.477716 14.9218 0.52827 15.039 0.582194C15.0878 0.602415 15.1367 0.626 15.1823 0.649592C15.345 0.723737 15.5013 0.801253 15.6544 0.882139C15.7235 0.912892 15.7909 0.947774 15.8562 0.986616C15.9278 1.02369 15.993 1.0574 16.0613 1.09784C16.133 1.13154 16.1981 1.17199 16.2664 1.21243C16.4423 1.31354 16.6148 1.41801 16.7841 1.52923C16.9306 1.6236 17.0771 1.72133 17.2171 1.81907C17.2497 1.84266 17.2823 1.86288 17.3148 1.88648C17.3897 1.94377 17.4678 1.9977 17.546 2.05499C17.6241 2.11228 17.699 2.17294 17.7739 2.23024C17.9204 2.34145 18.0669 2.45941 18.2037 2.57737L18.4185 2.75937C18.4869 2.81666 18.5553 2.8807 18.6237 2.94136L18.6432 2.96159C18.7767 3.07954 18.9037 3.20086 19.0241 3.32219C19.1609 3.45364 19.2878 3.58508 19.4116 3.72326C19.5353 3.86144 19.659 3.99288 19.7827 4.13443C19.8967 4.2625 20.0041 4.39394 20.1148 4.52875C20.1197 4.54078 20.1275 4.55123 20.1376 4.55908C20.2548 4.70737 20.3655 4.85566 20.4762 5.00395C20.5869 5.15224 20.6944 5.30727 20.7985 5.46231C20.9027 5.61734 21.0037 5.769 21.1046 5.9274C21.1078 5.93751 21.1078 5.94088 21.1176 5.94425C21.2088 6.09928 21.3032 6.25431 21.3911 6.41271C21.4562 6.5273 21.5246 6.64189 21.5832 6.76322C21.6288 6.84411 21.6678 6.92499 21.7102 7.00588C21.7525 7.08676 21.7883 7.16428 21.8241 7.24179C21.8664 7.32268 21.9023 7.4002 21.9413 7.48108C22.0097 7.62937 22.0748 7.78103 22.1399 7.93269C22.1953 8.07087 22.2506 8.20905 22.3027 8.34386C22.332 8.41801 22.3581 8.49215 22.3841 8.56293C22.4264 8.66404 22.459 8.76851 22.4948 8.86962C22.5241 8.95388 22.5534 9.0415 22.5795 9.12913C22.586 9.14598 22.5957 9.17968 22.6088 9.22687C22.6283 9.30101 22.6576 9.41223 22.6902 9.53693C22.7846 9.90092 22.9116 10.3896 22.9539 10.548C22.9563 10.5606 22.9596 10.573 22.9637 10.5851Z" fill="black"/>
</g>
<g id="Group_6" style="mix-blend-mode:multiply" opacity="0.25">
<path id="Vector_10" d="M11.549 28.6804C11.5457 28.6771 11.5457 28.6771 11.5425 28.6771C8.50102 26.8614 6.24494 23.9112 5.23596 20.4301C5.0452 19.7726 4.90263 19.1011 4.80945 18.4214C4.82247 18.4585 4.87131 18.6472 4.95922 18.9472C5.05363 19.2842 5.20015 19.7628 5.39875 20.3189C5.50619 20.5986 5.61363 20.8985 5.74387 21.2086C5.80573 21.367 5.87735 21.5254 5.95224 21.6872C6.02712 21.849 6.09549 22.0107 6.17689 22.1759C6.33317 22.5095 6.51549 22.8398 6.70108 23.1735C6.88666 23.5071 7.09177 23.8408 7.30666 24.1609C7.51503 24.4879 7.73968 24.8047 7.97084 25.108C8.20201 25.4113 8.43642 25.7045 8.67736 25.9775C8.91829 26.2505 9.14945 26.51 9.38387 26.7493C9.61829 26.9886 9.83642 27.2043 10.0578 27.4065C10.2792 27.6087 10.4681 27.784 10.6536 27.9424C10.8392 28.1008 10.9955 28.2288 11.129 28.34C11.379 28.5409 11.5327 28.6636 11.549 28.6804Z" fill="black"/>
</g>
<g id="Group_7" style="mix-blend-mode:multiply" opacity="0.25">
<path id="Vector_11" d="M27.834 14.8556C27.148 16.967 25.992 18.8819 24.4593 20.4455C22.9266 22.0093 21.0602 23.178 19.0108 23.8575C18.6624 23.9721 18.3108 24.0732 17.9526 24.1574C17.9982 24.1338 18.1936 24.053 18.5029 23.9316C18.6755 23.8575 18.9131 23.7867 19.1378 23.6755C19.3787 23.5575 19.6685 23.4463 19.9517 23.2946C20.095 23.2205 20.2448 23.143 20.401 23.0655C20.5541 22.9778 20.7103 22.8868 20.8731 22.7959C21.0408 22.7058 21.2038 22.6068 21.3615 22.4993C21.5243 22.3914 21.6969 22.2937 21.8629 22.1757C22.0289 22.0578 22.1982 21.9398 22.3675 21.8185C22.5368 21.6972 22.6964 21.559 22.8657 21.4309C23.035 21.3028 23.1978 21.1613 23.3605 21.0197C23.5233 20.8782 23.6894 20.74 23.8392 20.5816C23.9955 20.4299 24.1583 20.2884 24.308 20.1334C24.4578 19.9783 24.6043 19.8166 24.7508 19.6615C25.0243 19.3312 25.314 19.0245 25.555 18.6909C25.8122 18.3741 26.0303 18.0404 26.2517 17.7337C26.3526 17.5753 26.4503 17.4169 26.5448 17.2687C26.6422 17.1264 26.7324 16.9791 26.815 16.8272C26.9778 16.5373 27.1341 16.2744 27.2545 16.0318C27.375 15.7891 27.4954 15.5802 27.5703 15.3982C27.7071 15.105 27.8047 14.9129 27.834 14.8556Z" fill="black"/>
</g>
<g id="Group_8" style="mix-blend-mode:multiply" opacity="0.25">
<path id="Vector_12" d="M8.0514 5.97256L7.38719 6.36351C7.16253 6.48821 6.94768 6.62976 6.72954 6.76457C6.5114 6.89938 6.29978 7.0443 6.08815 7.18248L6.00675 7.23641L5.93838 7.28696L5.77881 7.40155L5.62257 7.51614L5.54439 7.57343L5.50861 7.60039C5.51187 7.59702 5.51509 7.59365 5.51509 7.59028L5.48253 7.62061L4.74021 8.21041L4.55466 8.35533L4.50579 8.38903L4.48954 8.40251H4.48625V8.40588L4.48303 8.40925L4.47326 8.41599L4.39509 8.48677L4.04675 8.81031C3.92954 8.91816 3.81559 9.02601 3.69512 9.12711L3.51928 9.28551L3.36625 9.43717L3.04395 9.76746C2.93976 9.88542 2.82907 10 2.72162 10.1146L2.64023 10.2022L2.62394 10.2191L2.6207 10.2224H2.61744L2.61418 10.2292L2.60767 10.2326L2.57186 10.2797L2.41558 10.4617L2.26255 10.6404L2.19093 10.7212L2.11604 10.8122L1.81325 11.183L1.53325 11.5537L1.38674 11.7424L1.24999 11.9312C1.15883 12.039 1.07093 12.1907 0.983022 12.3187C0.807208 12.5816 0.624872 12.8445 0.436035 13.1006C0.520686 12.9186 0.608597 12.74 0.703015 12.5648C0.758364 12.4569 0.816975 12.3491 0.872324 12.2412C0.989533 12.039 1.10349 11.8402 1.22721 11.6447C1.34442 11.456 1.46162 11.2706 1.5886 11.0852C1.71557 10.8999 1.84906 10.7212 1.98255 10.5426C2.11604 10.364 2.25604 10.1921 2.39604 10.0236C2.53604 9.85508 2.68256 9.68657 2.83558 9.52143C2.9886 9.35629 3.13836 9.19789 3.29792 9.04286C3.61047 8.73279 3.93931 8.43621 4.28117 8.15648C4.61652 7.88012 4.96489 7.62398 5.32303 7.38133C5.33238 7.37499 5.34218 7.36936 5.3523 7.36448C5.5314 7.24315 5.71695 7.12856 5.89928 7.01397C5.91002 7.0104 5.92002 7.00467 5.92861 6.99712L6.19233 6.84546C6.42024 6.71739 6.64815 6.59606 6.88257 6.48147C6.99326 6.42418 7.10722 6.37362 7.22117 6.3197C7.36117 6.25567 7.50443 6.19163 7.64443 6.13434C7.77792 6.08041 7.91466 6.02649 8.0514 5.97256Z" fill="black"/>
</g>
<g id="Group_9" style="mix-blend-mode:multiply" opacity="0.25">
<path id="Vector_13" d="M22.3032 8.34373C22.1925 8.14489 22.0883 7.95279 21.9743 7.75731L21.8897 7.61239C21.8604 7.55847 21.8408 7.52139 21.8083 7.47084L21.6357 7.18437L21.4632 6.90464L21.2808 6.62154L20.9487 6.11937L20.9422 6.11263C20.9296 6.09952 20.9187 6.08483 20.9097 6.06882C20.9093 6.06626 20.9082 6.0639 20.9064 6.06208V6.05871L20.6622 5.7318C20.6199 5.6745 20.5841 5.62058 20.5385 5.56665L20.4115 5.40151L20.2846 5.233L20.2292 5.16222L20.1641 5.07797L19.9232 4.78139L19.9166 4.77465C19.911 4.76706 19.9044 4.76026 19.8971 4.75443C19.8867 4.7426 19.877 4.73023 19.8678 4.71735C19.7539 4.59265 19.6464 4.46121 19.539 4.33989L19.1808 3.95231L18.8025 3.56675L18.4281 3.20614L18.4183 3.19603V3.19266H18.4151C18.3206 3.10504 18.2262 3.0174 18.1253 2.92978L17.9788 2.80845L17.829 2.68038L17.5295 2.42424L17.3765 2.29954L17.2267 2.18159C17.1713 2.14115 17.129 2.10744 17.0704 2.067L16.9206 1.95578L16.7611 1.83782L16.683 1.77716C16.6732 1.77042 16.6504 1.75693 16.6504 1.75356L16.6081 1.72661L16.2825 1.5008L15.9667 1.28847L15.9569 1.28511C15.856 1.2177 15.7551 1.1503 15.6444 1.08626L15.3188 0.887412L14.9932 0.691941L14.6611 0.506581L14.6513 0.499834L14.6025 0.472879L14.596 0.469505C14.4462 0.38862 14.2899 0.297622 14.1337 0.216736C14.2183 0.243698 14.2965 0.274033 14.3746 0.304365C14.4592 0.334699 14.5406 0.368395 14.622 0.405467C14.6458 0.41148 14.6688 0.420543 14.6904 0.432436C14.8076 0.476249 14.9216 0.526803 15.0388 0.580727C15.0876 0.600948 15.1365 0.624533 15.182 0.648125C15.3448 0.72227 15.5011 0.799789 15.6541 0.880675C15.7233 0.911425 15.7907 0.94631 15.856 0.985149C15.9276 1.02222 15.9927 1.05593 16.0611 1.09637C16.1327 1.13008 16.1979 1.17052 16.2662 1.21096C16.442 1.31207 16.6146 1.41655 16.7839 1.52776C16.9304 1.62213 17.0769 1.71987 17.2169 1.8176C17.2495 1.84119 17.282 1.86142 17.3146 1.88501C17.3895 1.9423 17.4676 1.99623 17.5458 2.05352C17.6239 2.11082 17.6988 2.17148 17.7737 2.22877C17.9202 2.33999 18.0667 2.45795 18.2034 2.57591L18.4183 2.7579C18.4867 2.81519 18.5551 2.87923 18.6234 2.9399L18.643 2.96012C18.7765 3.07808 18.9034 3.1994 19.0239 3.32073C19.1606 3.45216 19.2876 3.5836 19.4113 3.72178C19.5351 3.85996 19.6588 3.9914 19.7825 4.13295C19.8965 4.26102 20.0039 4.39246 20.1146 4.52727C20.1194 4.5393 20.1273 4.54978 20.1374 4.5576C20.2546 4.70589 20.3653 4.85418 20.476 5.00248C20.5867 5.15077 20.6941 5.3058 20.7983 5.46083C20.9025 5.61586 21.0034 5.76752 21.1044 5.92592C21.1076 5.93603 21.1076 5.9394 21.1174 5.94277C21.2086 6.0978 21.303 6.25284 21.3909 6.41124C21.456 6.52582 21.5244 6.64041 21.583 6.76174C21.6286 6.84263 21.6676 6.92351 21.7099 7.0044C21.7523 7.08529 21.7881 7.1628 21.8239 7.24032C21.8662 7.3212 21.902 7.39872 21.9411 7.4796C22.0095 7.62789 22.0746 7.77956 22.1397 7.93122C22.1957 8.07074 22.2511 8.20892 22.3032 8.34373Z" fill="black"/>
</g>
<g id="Group_10" style="mix-blend-mode:screen" opacity="0.4">
<path id="Vector_14" d="M11.5415 28.675C11.5024 28.6581 11.3266 28.584 11.0596 28.4492C10.9034 28.3717 10.7178 28.2773 10.5094 28.1526C10.301 28.0279 10.0666 27.8796 9.82894 27.7077C9.563 27.5264 9.30651 27.3307 9.06056 27.1213C8.78271 26.8895 8.51645 26.6432 8.26289 26.3832C7.9879 26.1088 7.72812 25.8185 7.48475 25.5137C7.23405 25.2036 6.99312 24.8767 6.76847 24.5397C6.54708 24.1959 6.3387 23.8454 6.15312 23.4916C6.0562 23.3179 5.96816 23.139 5.8894 22.9557C5.80475 22.7771 5.72661 22.5984 5.65498 22.4232C5.51352 22.0835 5.39068 21.7358 5.28708 21.3818C5.17963 21.0481 5.10801 20.7246 5.03963 20.428C4.93405 19.9478 4.86437 19.46 4.83126 18.9687C4.80847 18.6553 4.80847 18.4598 4.80847 18.4193C4.90162 19.0991 5.04419 19.7705 5.23498 20.428C6.24393 23.9091 8.50001 26.8594 11.5415 28.675Z" fill="white"/>
</g>
<g id="Group_11" style="mix-blend-mode:screen" opacity="0.4">
<path id="Vector_15" d="M27.834 14.8556C27.8243 14.9095 27.7754 15.1218 27.694 15.4487C27.6485 15.6442 27.5703 15.8734 27.4824 16.1363C27.3854 16.432 27.2734 16.7222 27.1471 17.0058C27.0201 17.3259 26.841 17.6495 26.6652 18C26.2471 18.7455 25.762 19.4485 25.2164 20.0997C25.0633 20.2648 24.9136 20.4333 24.7605 20.5985C24.6075 20.7636 24.4382 20.922 24.2787 21.0804C24.1191 21.2388 23.9401 21.3837 23.7675 21.5286C23.595 21.6736 23.4257 21.8219 23.2433 21.9499C22.8967 22.2147 22.5358 22.4589 22.1624 22.6813C21.8155 22.8888 21.4579 23.0767 21.0913 23.2441C20.9122 23.3216 20.7462 23.4059 20.5801 23.4733C20.4076 23.5339 20.2447 23.5946 20.0852 23.6519C19.8022 23.756 19.5143 23.8449 19.2224 23.9181C18.9962 23.9787 18.7668 24.026 18.5354 24.0597C18.2098 24.117 18.0047 24.1507 17.9526 24.1574C18.3108 24.0732 18.6624 23.9721 19.0108 23.8575C21.0602 23.178 22.9266 22.0093 24.4593 20.4455C25.992 18.8819 27.148 16.967 27.834 14.8556Z" fill="white"/>
</g>
<g id="Group_12" style="mix-blend-mode:screen" opacity="0.4">
<path id="Vector_16" d="M4.47449 8.41793C4.47821 8.41049 4.48565 8.41049 4.48565 8.40677V8.41049L4.47449 8.41793Z" fill="white"/>
</g>
<g id="Group_13" style="mix-blend-mode:screen" opacity="0.4">
<path id="Vector_17" d="M8.05155 5.97256C7.9148 6.02649 7.77806 6.08041 7.64457 6.13434C7.03619 6.38973 6.44548 6.68814 5.87666 7.02745C5.69759 7.1353 5.52503 7.24652 5.35248 7.36448C5.34088 7.37118 5.32998 7.37907 5.31992 7.38807C4.96106 7.6254 4.61441 7.88187 4.28131 8.15648C3.93939 8.43466 3.61123 8.73047 3.29806 9.04286C3.13852 9.19452 2.98225 9.35629 2.83574 9.52143C2.68272 9.6832 2.53946 9.85171 2.3962 10.0236C2.25295 10.1955 2.11294 10.3674 1.98271 10.5426C1.84271 10.7212 1.71248 10.9032 1.58876 11.0852C1.46504 11.2672 1.34457 11.456 1.22737 11.6447C1.1655 11.7424 1.10364 11.8402 1.04829 11.9379C0.830153 12.312 0.625036 12.6962 0.439455 13.0939C0.436199 13.0973 0.432943 13.104 0.429688 13.1074C0.537129 12.8007 0.65108 12.4974 0.771545 12.2008C0.839917 12.0491 0.882246 11.9076 0.966897 11.7492L1.08085 11.5267L1.19481 11.3178C1.27295 11.1695 1.33806 11.0448 1.43573 10.8864L1.69621 10.4853L1.76132 10.3842L1.8362 10.2764L2.12271 9.89216L2.15852 9.84497L2.20411 9.78768L2.27899 9.69331C2.37992 9.57198 2.4776 9.44729 2.58179 9.32596L2.91714 8.97208L2.99853 8.88445L3.06039 8.82042L3.09946 8.78335L3.27201 8.62158C3.38596 8.51373 3.50643 8.40925 3.62689 8.30477L3.98178 7.99134L4.06968 7.91382L4.10224 7.88686L4.11527 7.88012L4.13806 7.8599L4.18689 7.8262L4.37899 7.68802L5.15713 7.15552L5.12457 7.18585C5.1528 7.16041 5.18334 7.13783 5.21573 7.11845L5.2548 7.09149L5.33945 7.0443L5.50875 6.94994L5.67806 6.85557L5.76922 6.80501L5.85713 6.75783C6.09154 6.6365 6.32922 6.5354 6.57015 6.43429C6.81108 6.33318 7.05852 6.24892 7.30596 6.16467C7.55015 6.08715 7.8041 6.02649 8.05155 5.97256Z" fill="white"/>
</g>
<g id="Group_14" style="mix-blend-mode:screen" opacity="0.4">
<path id="Vector_18" d="M19.8184 4.60608L19.8835 4.73415L19.8672 4.7173C19.8447 4.68353 19.8281 4.64588 19.8184 4.60608Z" fill="white"/>
</g>
<g id="Group_15" style="mix-blend-mode:screen" opacity="0.4">
<path id="Vector_19" d="M20.88 6.00455L20.893 6.03825C20.8876 6.0275 20.8833 6.01621 20.88 6.00455Z" fill="white"/>
</g>
<g id="Group_16" style="mix-blend-mode:screen" opacity="0.4">
<path id="Vector_20" d="M20.9124 6.06955L21.0426 6.1774C21.0253 6.17207 21.0088 6.16415 20.9937 6.15381C20.9769 6.14525 20.9615 6.13385 20.9482 6.1201L20.9417 6.11336L20.9124 6.06955Z" fill="white"/>
</g>
<g id="Group_17" style="mix-blend-mode:screen" opacity="0.4">
<path id="Vector_21" d="M22.3025 8.34397C22.2504 8.20916 22.195 8.07098 22.1397 7.9328C22.0746 7.78114 22.0127 7.62948 21.9411 7.48119C21.902 7.4003 21.8662 7.32279 21.8239 7.2419C21.7913 7.16439 21.749 7.0835 21.7099 7.00598C21.6708 6.92847 21.6285 6.84421 21.583 6.76333C21.5244 6.642 21.456 6.52741 21.3908 6.41282C21.3029 6.25442 21.2085 6.09939 21.1174 5.94436C21.1076 5.94099 21.1076 5.93762 21.1043 5.92751C21.0067 5.76911 20.9057 5.6107 20.7983 5.46241C20.6974 5.30738 20.5899 5.15235 20.476 5.00406C20.3685 4.85577 20.2579 4.70411 20.1374 4.55919C20.1273 4.55137 20.1194 4.54089 20.1146 4.52886C20.0072 4.39405 19.8997 4.26261 19.7825 4.13454C19.662 3.99299 19.5415 3.85818 19.4113 3.72337C19.2876 3.58519 19.1606 3.45375 19.0239 3.32231C18.9034 3.20098 18.7764 3.07967 18.6429 2.96171L18.6234 2.94149C18.555 2.88082 18.4867 2.81678 18.4183 2.75949C18.3467 2.69545 18.2751 2.63479 18.2034 2.57749C18.0667 2.45953 17.9201 2.34158 17.7736 2.23036C17.6988 2.16969 17.6239 2.10903 17.5457 2.05511C17.4676 2.00118 17.3894 1.94389 17.3146 1.8866C17.282 1.863 17.2494 1.84278 17.2169 1.81919C17.0769 1.72145 16.9304 1.62372 16.7839 1.52935C16.6146 1.41814 16.442 1.31365 16.2662 1.21255C16.1978 1.1721 16.1327 1.13166 16.0611 1.09796C15.9927 1.05752 15.9276 1.02381 15.856 0.986737C15.7907 0.947895 15.7233 0.913013 15.6541 0.88226C15.5011 0.801374 15.3415 0.723859 15.182 0.649713C15.1364 0.626121 15.0876 0.602537 15.0388 0.582315C14.9248 0.528391 14.8076 0.484578 14.6904 0.434024C14.6688 0.422131 14.6458 0.413068 14.622 0.407056C14.5406 0.369983 14.4592 0.336284 14.3746 0.305952C14.2964 0.27562 14.2183 0.245285 14.1337 0.218323C14.303 0.252025 14.4755 0.289103 14.6416 0.339658L14.7294 0.366613L14.7197 0.359879L14.902 0.413803L15.0876 0.474464L15.449 0.609274L15.6248 0.676682L15.8039 0.750827C15.9179 0.798011 16.035 0.851931 16.1555 0.905855L16.3346 0.990111L16.5201 1.08785L16.8685 1.27659L16.9108 1.30017L16.963 1.33051L17.0476 1.38106L17.2169 1.48216L17.3927 1.59339C17.4448 1.62372 17.5067 1.66753 17.562 1.7046L17.7313 1.81919L17.8908 1.93378L18.2099 2.17643L18.3662 2.29777L18.5257 2.4292C18.6267 2.51009 18.7276 2.60109 18.8318 2.68872L18.8383 2.69545L18.8481 2.70894L18.8676 2.72916L18.8578 2.71568L19.2616 3.09314L19.6327 3.48408L19.9974 3.89525C20.1178 4.04017 20.2318 4.17835 20.3457 4.32327L20.3522 4.33675L20.4108 4.45134C20.4011 4.41636 20.3857 4.3833 20.3653 4.3536L20.375 4.36371L20.6192 4.70411L20.6778 4.79174L20.7462 4.8861L20.8601 5.06135L20.9741 5.23998C21.0132 5.29727 21.0522 5.36468 21.0848 5.42197L21.3029 5.7927L21.3094 5.80618C21.2885 5.77534 21.262 5.74902 21.2313 5.72866C21.2085 5.71855 21.1988 5.71518 21.1922 5.71181L21.3094 5.80618L21.3127 5.81292L21.3225 5.81966L21.4755 6.11624L21.5471 6.2679C21.5797 6.33194 21.5992 6.37238 21.622 6.4263L21.762 6.72963L21.8272 6.88466L21.8922 7.0498L22.0127 7.36323C22.0322 7.41378 22.0551 7.47782 22.0713 7.52837L22.1201 7.68677C22.1527 7.79462 22.195 7.90584 22.2178 8.01369L22.3025 8.34397Z" fill="white"/>
</g>
</g>
</g>
</g>
</g>
<defs>
<linearGradient id="paint0_linear_148_8559" x1="20.733" y1="24.2512" x2="20.733" y2="2.78866" gradientUnits="userSpaceOnUse">
<stop stop-color="#F80300"/>
<stop offset="1" stop-color="#FCC400"/>
</linearGradient>
<linearGradient id="paint1_linear_148_8559" x1="5.47369" y1="21.6421" x2="27.2316" y2="21.6421" gradientUnits="userSpaceOnUse">
<stop stop-color="#F80300"/>
<stop offset="1" stop-color="#FCC400"/>
</linearGradient>
<linearGradient id="paint2_linear_148_8559" x1="6.03791" y1="7.06531" x2="6.03791" y2="28.6705" gradientUnits="userSpaceOnUse">
<stop stop-color="#F80300"/>
<stop offset="1" stop-color="#FCC400"/>
</linearGradient>
<linearGradient id="paint3_linear_148_8559" x1="22.4351" y1="7.06149" x2="1.14816" y2="7.06149" gradientUnits="userSpaceOnUse">
<stop stop-color="#F80300"/>
<stop offset="1" stop-color="#FCC400"/>
</linearGradient>
</defs>
</svg>
