<svg width="21" height="28" viewBox="0 0 21 28" fill="none" xmlns="http://www.w3.org/2000/svg">
<g id="Standard Collection 15">
<path id="Vector" d="M19.013 27.9052C18.7141 27.905 18.4191 27.835 18.1501 27.7002C17.8809 27.5655 17.6445 27.3695 17.4585 27.1269C16.8829 26.4823 12.4343 21.9505 9.70839 19.1875C9.51973 18.9989 9.36891 18.7735 9.26462 18.5241C9.16033 18.2749 9.10462 18.0066 9.10071 17.7349C9.09681 17.4631 9.14476 17.1933 9.24183 16.9408C9.33891 16.6883 9.48317 16.4584 9.66632 16.2639C9.84946 16.0697 10.0679 15.9148 10.309 15.8083C10.5501 15.7018 10.8091 15.646 11.0711 15.6438C11.3331 15.6416 11.593 15.6932 11.8357 15.7956C12.0784 15.8981 12.2992 16.0493 12.4853 16.2406C12.5047 16.2604 14.468 18.2505 16.4166 20.2386L17.0272 20.8617V11.1843C17.0272 7.42081 14.0992 4.35899 10.5001 4.35899C6.90094 4.35899 3.973 7.42081 3.973 11.1843V25.8448C3.973 26.3912 3.7637 26.9153 3.39116 27.3016C3.01863 27.688 2.51335 27.905 1.98649 27.905C1.45964 27.905 0.954373 27.688 0.581832 27.3016C0.209291 26.9153 0 26.3912 0 25.8448V11.1843C0 5.14868 4.7103 0.238434 10.5001 0.238434C16.2898 0.238434 21.0001 5.14868 21.0001 11.1843V25.8448C20.9999 26.3912 20.7905 26.9153 20.4179 27.3018C20.0452 27.6881 19.5399 27.9051 19.013 27.9052Z" fill="url(#paint0_linear_148_8515)"/>
<path id="Vector_2" d="M10.5003 13.1646C11.7542 13.1646 12.7706 12.1105 12.7706 10.81C12.7706 9.50959 11.7542 8.45538 10.5003 8.45538C9.24643 8.45538 8.22998 9.50959 8.22998 10.81C8.22998 12.1105 9.24643 13.1646 10.5003 13.1646Z" fill="url(#paint1_linear_148_8515)"/>
</g>
<defs>
<linearGradient id="paint0_linear_148_8515" x1="10.5001" y1="28.2373" x2="10.5001" y2="0.321433" gradientUnits="userSpaceOnUse">
<stop stop-color="#00C0F4"/>
<stop offset="1" stop-color="#12ECA0"/>
</linearGradient>
<linearGradient id="paint1_linear_148_8515" x1="10.5003" y1="28.2297" x2="10.5003" y2="0.317748" gradientUnits="userSpaceOnUse">
<stop stop-color="#00C0F4"/>
<stop offset="1" stop-color="#12ECA0"/>
</linearGradient>
</defs>
</svg>
