<svg width="26" height="24" viewBox="0 0 26 24" fill="none" xmlns="http://www.w3.org/2000/svg">
<g id="Standard Collection 12">
<g id="Clip path group">
<mask id="mask0_148_8483" style="mask-type:luminance" maskUnits="userSpaceOnUse" x="0" y="0" width="26" height="24">
<g id="clip0">
<path id="Vector" d="M25.5714 0.308716H0.428589V23.0819H25.5714V0.308716Z" fill="white"/>
</g>
</mask>
<g mask="url(#mask0_148_8483)">
<g id="Group">
<path id="Vector_2" d="M19.2861 23.0819V21.4553C19.2861 21.2416 19.2454 21.0301 19.1665 20.8327C19.0875 20.6355 18.9718 20.4561 18.8259 20.305C18.6798 20.1539 18.5066 20.0341 18.316 19.9524C18.1254 19.8707 17.921 19.8286 17.7146 19.8286H11.4285C9.34466 19.8286 7.34616 18.9717 5.87264 17.4464C4.39913 15.9211 3.57131 13.8524 3.57127 11.6953C3.57127 10.6272 3.77451 9.56962 4.16937 8.58284C4.56424 7.59605 5.143 6.69945 5.87261 5.94419C6.60223 5.18895 7.4684 4.58987 8.42168 4.18114C9.37496 3.77241 10.3967 3.56205 11.4285 3.56207H17.7142C17.9205 3.56213 18.125 3.5201 18.3157 3.43839C18.5064 3.35666 18.6797 3.23685 18.8256 3.0858C18.9716 2.93473 19.0874 2.75539 19.1665 2.558C19.2454 2.36062 19.2861 2.14905 19.2861 1.93539V0.308716H11.4289C9.98432 0.308716 8.55394 0.60324 7.21935 1.17547C5.88478 1.7477 4.67216 2.58644 3.65073 3.64378C2.62929 4.70113 1.81904 5.95638 1.26626 7.33787C0.713468 8.71935 0.428959 10.2 0.428974 11.6953C0.428974 14.7152 1.58788 17.6114 3.65075 19.7468C5.71363 21.8822 8.5115 23.0819 11.4289 23.0819H19.2861Z" fill="url(#paint0_linear_148_8483)"/>
<path id="Vector_3" d="M6.71454 11.6953C6.71454 12.9896 7.2112 14.2307 8.09527 15.1458C8.97933 16.061 10.1784 16.5751 11.4286 16.5751H19.2865C20.12 16.5751 20.9193 16.9179 21.5087 17.528C22.0981 18.1381 22.4292 18.9656 22.4292 19.8285V23.0818H25.5721V19.8286C25.5721 18.103 24.9099 16.448 23.7311 15.2277C22.5523 14.0075 20.9535 13.322 19.2865 13.322H11.4289C11.0121 13.322 10.6124 13.1506 10.3177 12.8456C10.023 12.5405 9.85743 12.1267 9.85743 11.6953C9.85743 11.2639 10.023 10.8502 10.3177 10.5451C10.6124 10.24 11.0121 10.0686 11.4289 10.0686H19.2865C20.9535 10.0686 22.5523 9.38314 23.7311 8.16291C24.9099 6.9427 25.5721 5.28772 25.5721 3.56207V0.308716H22.4288V3.56207C22.4288 4.42479 22.0977 5.25219 21.5084 5.86227C20.9192 6.47236 20.1199 6.81516 19.2865 6.8153H11.4289C10.8098 6.81526 10.1967 6.94146 9.62474 7.1867C9.05276 7.43193 8.53304 7.7914 8.09527 8.24455C7.6575 8.69771 7.31025 9.23569 7.07334 9.82778C6.83643 10.4199 6.71452 11.0545 6.71454 11.6953Z" fill="url(#paint1_linear_148_8483)"/>
</g>
</g>
</g>
</g>
<defs>
<linearGradient id="paint0_linear_148_8483" x1="3.27639" y1="11.6953" x2="27.4701" y2="11.6953" gradientUnits="userSpaceOnUse">
<stop stop-color="#F54A48"/>
<stop offset="1" stop-color="#FA982F"/>
</linearGradient>
<linearGradient id="paint1_linear_148_8483" x1="3.2636" y1="11.6953" x2="27.4767" y2="11.6953" gradientUnits="userSpaceOnUse">
<stop stop-color="#F54A48"/>
<stop offset="1" stop-color="#FA982F"/>
</linearGradient>
</defs>
</svg>
