<svg width="40" height="38" viewBox="0 0 40 38" fill="none" xmlns="http://www.w3.org/2000/svg">
<g id="Standard Collection 17" filter="url(#filter0_d_148_8527)">
<g id="Clip path group">
<mask id="mask0_148_8527" style="mask-type:luminance" maskUnits="userSpaceOnUse" x="4" y="-1" width="32" height="31">
<g id="clip0">
<path id="Vector" d="M36 -0.00759888H4V29.3168H36V-0.00759888Z" fill="white"/>
</g>
</mask>
<g mask="url(#mask0_148_8527)">
<g id="Group">
<path id="Vector_2" d="M31.7451 4.13335L30.1824 12.3263C30.1792 12.3427 30.1804 12.3597 30.1858 12.3754C30.191 12.3912 30.2004 12.4052 30.2128 12.416C30.2251 12.4267 30.24 12.4339 30.2558 12.4367C30.2718 12.4394 30.2882 12.4377 30.3032 12.4317L31.9739 11.7799C31.9779 11.804 31.982 11.8288 31.9857 11.8519C32.3869 14.4687 32.0929 17.1491 31.1353 19.6061C30.1776 22.0632 28.5924 24.2043 26.5493 25.8002C24.5062 27.396 22.0822 28.3866 19.5368 28.6658C16.9916 28.9449 14.4209 28.5021 12.1001 27.3848C14.5336 28.7819 17.2973 29.4432 20.0762 29.2935C22.8552 29.1438 25.5377 28.1892 27.8179 26.5383C30.0983 24.8873 31.8848 22.6066 32.9739 19.9558C34.063 17.3052 34.411 14.391 33.978 11.5456L35.9022 11.7073C35.9186 11.7086 35.9348 11.7054 35.9496 11.6978C35.9642 11.6903 35.9765 11.6788 35.9854 11.6645C35.9942 11.6503 35.9991 11.6338 35.9996 11.6168C36 11.5999 35.9961 11.5832 35.9881 11.5684L31.9122 4.10502C31.9031 4.08845 31.8892 4.07517 31.8726 4.06697C31.856 4.05876 31.8373 4.05601 31.8192 4.05909C31.801 4.06217 31.7842 4.07095 31.7709 4.08422C31.7576 4.09749 31.7486 4.11465 31.7451 4.13335Z" fill="url(#paint0_linear_148_8527)"/>
<path id="Vector_3" d="M28.7606 21.2261C27.4983 22.888 25.8771 24.2205 24.0274 25.1166C22.1776 26.0127 20.1507 26.4476 18.1092 26.3862C16.0677 26.3248 14.0686 25.7689 12.2722 24.7633C10.4758 23.7574 8.9321 22.3298 7.76507 20.5948C6.59803 18.86 5.84011 16.866 5.55211 14.7729C5.26412 12.68 5.45408 10.5463 6.10676 8.54302C6.75943 6.53978 7.85663 4.72278 9.31033 3.23784C10.764 1.7529 12.5337 0.641352 14.4775 -0.00759888C11.9728 0.629622 9.69155 1.98274 7.89401 3.8974C6.09646 5.81207 4.85497 8.21117 4.31119 10.821C3.7674 13.4309 3.9432 16.1464 4.81853 18.6578C5.69387 21.1693 7.23349 23.3754 9.26177 25.0246C11.29 26.6739 13.7253 27.6999 16.2897 27.9855C18.8542 28.271 21.4445 27.8048 23.7653 26.6398C26.086 25.4748 28.0437 23.6581 29.4151 21.3969C30.7863 19.1357 31.5161 16.521 31.5211 13.8512C31.3368 16.5406 30.375 19.1103 28.7606 21.2261Z" fill="url(#paint1_linear_148_8527)"/>
<path id="Vector_4" d="M25.8884 6.94497C25.0835 8.00617 24.1682 8.97243 23.1589 9.82633C23.1487 9.83501 23.1404 9.84595 23.1348 9.85834C23.1291 9.87073 23.1262 9.88428 23.1262 9.89799V23.1549C23.1262 23.2616 23.0934 23.3655 23.0327 23.4516C22.9719 23.5378 22.8863 23.6017 22.7882 23.6342L22.7777 23.6377C22.705 23.6619 22.6279 23.6678 22.5525 23.6552C22.4771 23.6427 22.4055 23.6117 22.344 23.5652C22.2822 23.5185 22.2321 23.4576 22.1974 23.3871C22.1628 23.3166 22.1448 23.2387 22.1448 23.1597V10.8001C22.1448 10.7831 22.1404 10.7664 22.132 10.7519C22.1235 10.7373 22.1113 10.7255 22.0967 10.7176C22.0822 10.7097 22.0658 10.7062 22.0495 10.7072C22.0331 10.7083 22.0173 10.7141 22.0038 10.7238C20.6675 11.6763 19.2106 12.4334 17.6745 12.9738C17.6568 12.98 17.6414 12.9918 17.6304 13.0075C17.6195 13.0233 17.6136 13.0422 17.6136 13.0616V23.7683C17.6136 23.8426 17.5976 23.916 17.5669 23.9831C17.5362 24.0503 17.4915 24.1096 17.4361 24.1569C17.3806 24.2041 17.3157 24.2378 17.246 24.256C17.1764 24.2741 17.1037 24.276 17.0333 24.2616L17.0142 24.2577C16.9044 24.2352 16.8055 24.1738 16.7345 24.0841C16.6635 23.9944 16.6249 23.882 16.6252 23.766C16.6277 22.6133 16.6302 21.0612 16.6321 21.0623V13.4259C16.6321 13.4116 16.629 13.3976 16.6229 13.3848C16.6168 13.372 16.6079 13.3609 16.597 13.3522C16.5861 13.3435 16.5734 13.3376 16.5599 13.3348C16.5464 13.3321 16.5324 13.3326 16.5192 13.3363L16.4747 13.3484C15.2216 13.6893 14.1127 14.4502 13.3214 15.5122C12.5301 16.5744 12.1008 17.8779 12.1007 19.2191V20.9776C12.101 21.0758 12.0734 21.172 12.0214 21.2541C11.9694 21.3363 11.8952 21.4009 11.8081 21.4399C11.721 21.4788 11.6248 21.4906 11.5313 21.4736C11.4379 21.4566 11.3513 21.4116 11.2823 21.3441C9.35752 19.4291 8.13368 16.8826 7.81926 14.1384C7.50484 11.3941 8.1193 8.62192 9.55795 6.29403C10.9966 3.96614 13.1705 2.22658 15.7092 1.37171C18.2478 0.516836 20.9943 0.599533 23.4808 1.60572C21.5231 0.642349 19.3521 0.238774 17.1928 0.436855C15.0337 0.634935 12.965 1.42745 11.2015 2.73219C9.43796 4.03694 8.04384 5.80637 7.16371 7.85693C6.2836 9.90748 5.94955 12.1645 6.19624 14.3938C6.44293 16.6229 7.26136 18.7433 8.56664 20.5347C9.87192 22.3262 11.6165 23.7234 13.6193 24.5816C15.6222 25.4396 17.8104 25.7274 19.9569 25.415C22.1035 25.1026 24.1301 24.2012 25.8267 22.8045C26.4185 22.3817 26.9706 21.9022 27.4754 21.372L27.5284 21.3133C27.612 21.2205 27.6584 21.0983 27.6581 20.9713V4.61957C27.6581 4.61957 27.6581 4.56124 27.6581 4.48388C27.6582 4.4632 27.6517 4.44306 27.6396 4.42663C27.6274 4.41021 27.6103 4.39844 27.591 4.39317C27.5717 4.38791 27.5512 4.38945 27.5328 4.39755C27.5144 4.40565 27.4992 4.41984 27.4895 4.43791C27.0227 5.31739 26.4872 6.15586 25.8884 6.94497Z" fill="url(#paint2_linear_148_8527)"/>
</g>
</g>
</g>
</g>
<defs>
<filter id="filter0_d_148_8527" x="0.00189209" y="-0.00759888" width="39.9977" height="37.3219" filterUnits="userSpaceOnUse" color-interpolation-filters="sRGB">
<feFlood flood-opacity="0" result="BackgroundImageFix"/>
<feColorMatrix in="SourceAlpha" type="matrix" values="0 0 0 0 0 0 0 0 0 0 0 0 0 0 0 0 0 0 127 0" result="hardAlpha"/>
<feOffset dy="4"/>
<feGaussianBlur stdDeviation="2"/>
<feComposite in2="hardAlpha" operator="out"/>
<feColorMatrix type="matrix" values="0 0 0 0 0 0 0 0 0 0 0 0 0 0 0 0 0 0 0.25 0"/>
<feBlend mode="normal" in2="BackgroundImageFix" result="effect1_dropShadow_148_8527"/>
<feBlend mode="normal" in="SourceGraphic" in2="effect1_dropShadow_148_8527" result="shape"/>
</filter>
<linearGradient id="paint0_linear_148_8527" x1="12.1001" y1="16.6861" x2="35.9996" y2="16.6861" gradientUnits="userSpaceOnUse">
<stop stop-color="#403BEB"/>
<stop offset="1" stop-color="#22B7A0"/>
</linearGradient>
<linearGradient id="paint1_linear_148_8527" x1="4.00189" y1="14.0298" x2="31.5211" y2="14.0298" gradientUnits="userSpaceOnUse">
<stop stop-color="#403BEB"/>
<stop offset="1" stop-color="#22B7A0"/>
</linearGradient>
<linearGradient id="paint2_linear_148_8527" x1="6.11732" y1="12.9626" x2="27.6581" y2="12.9626" gradientUnits="userSpaceOnUse">
<stop stop-color="#403BEB"/>
<stop offset="1" stop-color="#22B7A0"/>
</linearGradient>
</defs>
</svg>
