<svg width="32" height="34" viewBox="0 0 32 34" fill="none" xmlns="http://www.w3.org/2000/svg">
<g id="Standard Collection 3">
<g id="Clip path group">
<mask id="mask0_148_8811" style="mask-type:luminance" maskUnits="userSpaceOnUse" x="0" y="-1" width="32" height="35">
<g id="clip0">
<path id="Vector" d="M32 -0.00759888H0V33.1171H32V-0.00759888Z" fill="white"/>
</g>
</mask>
<g mask="url(#mask0_148_8811)">
<g id="Group">
<path id="Vector_2" d="M3.13238 14.5182C3.00241 14.0162 3.00239 13.4877 3.13233 12.9857C3.26226 12.4837 3.51756 12.026 3.87257 11.6585L11.2701 4.00099C11.6251 3.63351 12.0673 3.36923 12.5522 3.23474C13.0371 3.10024 13.5477 3.10026 14.0326 3.23479L20.9549 5.15479C21.0269 4.17314 21.3571 3.23059 21.9097 2.42923L13.5723 0.116966C12.9738 -0.0490018 12.3438 -0.0489984 11.7453 0.116977C11.1469 0.282952 10.6012 0.609053 10.1631 1.0625L1.03401 10.5125C0.595959 10.966 0.280932 11.5308 0.120593 12.1503C-0.0397466 12.7697 -0.0397501 13.422 0.120583 14.0414L2.44027 23.0028C3.19859 22.4034 4.10141 22.0311 5.05021 21.9267L3.13238 14.5182Z" fill="#18CDCA"/>
<path id="Vector_3" d="M26.8866 10.9354L28.8685 18.5915C28.9985 19.0936 28.9983 19.6221 28.8685 20.124C28.7385 20.626 28.4831 21.0837 28.1281 21.4512L20.7306 29.1089C20.3756 29.4764 19.9334 29.7405 19.4484 29.8751C18.9636 30.0095 18.4529 30.0095 17.968 29.8751L10.8111 27.8899C10.7102 28.8721 10.3506 29.8066 9.77145 30.5915L18.4286 32.9927C19.0269 33.1588 19.6571 33.1588 20.2554 32.9927C20.854 32.8267 21.3996 32.5007 21.8377 32.0472L30.9668 22.5972C31.405 22.1437 31.7199 21.5789 31.8803 20.9593C32.0407 20.3399 32.0407 19.6877 31.8803 19.0683L29.4731 9.77139C28.7308 10.3985 27.8358 10.8013 26.8866 10.9354Z" fill="#18CDCA"/>
<path id="Vector_4" d="M2.64831 24.2388C2.06201 24.8456 1.66273 25.619 1.50097 26.4607C1.33921 27.3026 1.42222 28.1751 1.73953 28.9681C2.05682 29.7609 2.59415 30.4387 3.28354 30.9156C3.97296 31.3923 4.78347 31.647 5.61262 31.647C6.44176 31.647 7.25229 31.3923 7.94169 30.9156C8.6311 30.4387 9.16843 29.7609 9.48572 28.9681C9.80303 28.1751 9.88604 27.3026 9.72427 26.4607C9.56252 25.619 9.16324 24.8456 8.57694 24.2388C7.79014 23.4263 6.72407 22.9698 5.61262 22.9698C4.50118 22.9698 3.43511 23.4263 2.64831 24.2388Z" fill="#4F80E1"/>
<path id="Vector_5" d="M23.2064 2.50978C22.6202 3.11667 22.2208 3.8899 22.0592 4.7317C21.8974 5.57348 21.9804 6.44602 22.2977 7.23898C22.615 8.03193 23.1523 8.70969 23.8416 9.18651C24.5311 9.66336 25.3416 9.91788 26.1707 9.91788C26.9999 9.91788 27.8104 9.66336 28.4999 9.18651C29.1892 8.70969 29.7265 8.03193 30.0438 7.23898C30.3611 6.44602 30.4441 5.57348 30.2823 4.7317C30.1207 3.8899 29.7213 3.11667 29.1351 2.50978C28.3483 1.69716 27.2822 1.24078 26.1707 1.24078C25.0593 1.24078 23.9931 1.69716 23.2064 2.50978Z" fill="#4F80E1"/>
<path id="Vector_6" d="M18.461 28.0577C18.2926 28.0577 18.1251 28.0349 17.9624 27.9898L11.4111 26.1726C11.1927 24.9651 10.6267 23.854 9.78754 22.9854C8.94834 22.1168 7.87508 21.5308 6.70855 21.3048L4.9532 14.5237C4.86618 14.1855 4.86643 13.8296 4.95395 13.4915C5.04147 13.1534 5.21319 12.845 5.45193 12.5971L12.1761 5.63638C12.4153 5.38877 12.7133 5.21071 13.04 5.12007C13.3668 5.02946 13.7108 5.02947 14.0375 5.12013L20.4052 6.88632C20.6578 8.08637 21.2546 9.17947 22.1175 10.0225C22.9804 10.8654 24.0692 11.419 25.2411 11.6106L27.0464 18.5866C27.1334 18.9249 27.1332 19.2809 27.0455 19.6189C26.958 19.9571 26.7864 20.2654 26.5475 20.5134L19.8233 27.4739C19.6449 27.6595 19.4324 27.8069 19.1986 27.907C18.9647 28.0072 18.7141 28.0585 18.461 28.0577Z" fill="#4F80E1"/>
</g>
</g>
</g>
</g>
</svg>
